<svg xmlns="http://www.w3.org/2000/svg" xmlns:xlink="http://www.w3.org/1999/xlink" width="24" height="24" viewBox="0 0 24 24"><defs><path id="grjqa" d="M454.853 68.99l-6.441-6.391a9.532 9.532 0 0 1-4.872 1.331c-5.258 0-9.535-4.244-9.535-9.46 0-5.216 4.277-9.46 9.535-9.46 5.257 0 9.534 4.244 9.534 9.46a9.35 9.35 0 0 1-1.478 5.054l6.399 6.348zm-11.313-8.586c3.297 0 5.98-2.662 5.98-5.934 0-3.271-2.683-5.933-5.98-5.933-3.298 0-5.98 2.662-5.98 5.933 0 3.272 2.682 5.934 5.98 5.934z"/></defs><g><g transform="translate(-434 -45)"><use fill="#fff" xlink:href="#grjqa"/><use fill="#0e1a35" xlink:href="#grjqa"/></g></g></svg>